# xmcd CD database file
#
# Track frame offsets:
#	150
#	24068
#	43460
#	63765
#	81646
#	101990
#	122108
#	144368
#	163135
#	185972
#	207353
#	230532
#	252657
#	273791
#	296259
#	315623
#
# Disc length: 4446 seconds
#
# Revision: 0
# Processed by: cddbd v1.5.2PL0 Copyright (c) Steve Scherf et al.
# Submitted via: CDex 1.50
#
DISCID=f3115c10
DTITLE=Eddie Santiago - Recopilacion 1
DYEAR=1900
DGENRE=Salsa
TTITLE0=Antidoto y Veneno - EDDIE SANTIAGO
TTITLE1=Cada Vez - EDDIE SANTIAGO
TTITLE2=De Profesion- Tu Amante - EDDIE SANTIAGO
TTITLE3=Hagamoslo - EDDIE SANTIAGO
TTITLE4=Insaciable - EDDIE SANTIAGO
TTITLE5=Jugue y Perdi - EDDIE SANTIAGO
TTITLE6=Lluvia - EDDIE SANTIAGO
TTITLE7=Me Ama - EDDIE SANTIAGO
TTITLE8=Me Fallaste - EDDIE SANTIAGO
TTITLE9=Para que Vuelves - EDDIE SANTIAGO
TTITLE10=Que Locura Enamorarme de Ti - EDDIE SANTIAGO
TTITLE11=Todo Empezo - EDDIE SANTIAGO
TTITLE12=Tu Me Haces Falta - EDDIE SANTIAGO
TTITLE13=Tu Me Quemas - EDDIE SANTIAGO
TTITLE14=Una Nueva Oportunidad - EDDIE SANTIAGO
TTITLE15=Voy a Robarme una Luna - EDDIE SANTIAGO
EXTD=
EXTT0=
EXTT1=
EXTT2=
EXTT3=
EXTT4=
EXTT5=
EXTT6=
EXTT7=
EXTT8=
EXTT9=
EXTT10=
EXTT11=
EXTT12=
EXTT13=
EXTT14=
EXTT15=
PLAYORDER=
